<svg width="136" height="202" viewBox="0 0 136 202" fill="none" xmlns="http://www.w3.org/2000/svg">
<path d="M11.2657 154.739C11.2657 152.702 11.2657 151.378 11.2657 150.055C11.2657 149.167 11.0914 148.035 12.2073 147.634C13.3232 147.234 13.8637 148.209 14.5786 148.801C30.3929 161.67 47.6021 172.675 63.9919 184.778C65.0895 185.815 66.5433 186.393 68.0545 186.393C69.5656 186.393 71.0194 185.815 72.117 184.778C88.1232 172.762 105.123 162.14 120.711 149.567C121.565 148.87 122.454 147.826 123.605 148.226C124.756 148.627 124.617 150.089 124.739 151.169C125.471 157.473 124.425 162.349 118.235 166.441C102.543 176.889 87.3386 188.139 72.0473 199.196C69.1878 201.286 66.9386 201.443 64.0093 199.318C47.515 187.314 30.9393 175.438 14.2822 163.69C10.4986 161.043 11.4227 157.508 11.2657 154.756" fill="#EB7236"/>
<path d="M92.7233 84.4395L82.7849 74.5136C82.1669 73.9711 81.5845 73.3894 81.0413 72.7722C80.7659 72.474 80.5537 72.1234 80.4173 71.7413C80.2809 71.3592 80.2232 70.9535 80.2476 70.5486C80.2721 70.1437 80.3781 69.7479 80.5594 69.3849C80.7408 69.0219 80.9936 68.6992 81.3028 68.4362C81.5583 68.1151 81.879 67.8517 82.2437 67.6631C82.6084 67.4745 83.0089 67.3652 83.4189 67.3421C83.8289 67.3191 84.2391 67.383 84.6227 67.5295C85.0062 67.676 85.3544 67.902 85.6444 68.1924C91.1018 73.4165 96.4721 78.9541 101.982 84.4395C101.603 84.9496 101.195 85.438 100.761 85.9022C96.0013 90.6736 91.2587 95.445 86.4813 100.182C84.6157 102.01 82.6977 102.184 81.2505 100.704C79.8033 99.2238 79.9951 97.2212 81.791 95.4798C85.2782 91.8926 88.9223 88.3402 92.7233 84.5265" fill="#EB7236"/>
<path d="M43.4695 84.4394L53.4254 74.5136C54.0393 73.9667 54.6215 73.3853 55.169 72.7722C55.4444 72.474 55.6566 72.1234 55.793 71.7413C55.9294 71.3592 55.9871 70.9535 55.9627 70.5486C55.9383 70.1437 55.8322 69.7478 55.6509 69.3848C55.4696 69.0219 55.2167 68.6992 54.9075 68.4362C54.6585 68.1091 54.3429 67.8384 53.9816 67.642C53.6203 67.4456 53.2213 67.3279 52.8111 67.2966C52.4009 67.2654 51.9888 67.3213 51.6018 67.4607C51.2148 67.6001 50.8618 67.8198 50.566 68.1053C45.1085 73.3294 39.7383 78.867 34.2285 84.3524C34.6075 84.8625 35.015 85.3509 35.449 85.8151C40.1916 90.5865 44.9516 95.3463 49.729 100.094C51.5772 101.923 53.5126 102.097 54.9598 100.617C56.407 99.1367 56.2152 97.1341 54.4193 95.3927C50.9321 91.8055 47.288 88.2531 43.4695 84.4394Z" fill="#EB7236"/>
<path d="M64.3577 99.5547L65.6479 99.9204C65.9078 99.9948 66.1798 100.017 66.4484 99.9868C66.7171 99.9562 66.977 99.873 67.2134 99.742C67.4499 99.611 67.6581 99.4348 67.8263 99.2234C67.9945 99.0119 68.1193 98.7695 68.1935 98.5098L75.8305 71.8319C75.9756 71.3055 75.9068 70.7431 75.6391 70.267C75.3714 69.791 74.9264 69.4397 74.4007 69.2895L73.1279 68.9238C72.868 68.8493 72.596 68.8268 72.3274 68.8574C72.0587 68.8879 71.7988 68.9711 71.5624 69.1021C71.326 69.2331 71.1177 69.4094 70.9495 69.6208C70.7814 69.8322 70.6566 70.0747 70.5823 70.3343L62.9453 97.0122C62.8684 97.2718 62.8439 97.544 62.8735 97.8131C62.903 98.0822 62.986 98.3427 63.1175 98.5794C63.249 98.8161 63.4263 99.0242 63.6393 99.1917C63.8522 99.3591 64.0964 99.4825 64.3577 99.5547Z" fill="#EB7236"/>
<path d="M132.687 89.4024C128.469 86.4505 125.489 82.0482 124.318 77.0386C124.191 76.4985 124.092 75.9521 124.022 75.4017C124.022 75.2276 124.022 75.036 124.022 74.8619C124.022 74.2872 123.917 73.6778 123.882 73.1205C123.882 71.7448 124.248 63.8041 124.248 63.8041C125.364 54.6271 118.25 44.8057 106.464 43.7086L101.041 52.5374L101.285 52.6419C103.36 53.53 106.708 55.045 109.463 56.5426C110.086 56.8921 110.67 57.3065 111.206 57.779C112.671 59.381 112.828 62.2021 112.828 67.4784C112.828 68.2446 112.828 68.9934 112.828 69.7422C112.828 70.491 112.828 71.3791 112.828 72.1802V72.3195C112.828 73.1205 112.828 73.9215 112.828 74.7226V74.8793C112.828 75.6803 112.828 76.4814 112.95 77.2824C112.95 78.1009 113.107 78.9019 113.229 79.7029C113.754 83.7554 115.382 87.5862 117.936 90.7781C118.256 91.1036 118.435 91.5413 118.435 91.9971C118.435 92.4529 118.256 92.8905 117.936 93.216C113.089 99.0671 112.706 105.824 112.706 112.685V115.837C112.82 119.833 111.92 123.793 110.091 127.348C108.262 130.904 105.563 133.941 102.244 136.176C92.0442 143.594 81.7395 150.925 71.4872 158.466C68.8718 160.381 66.7795 160.764 63.9375 158.657C53.4759 150.925 42.7529 143.455 32.1693 135.845C30.6061 134.706 29.1735 133.397 27.8975 131.944C26.3531 130.261 25.1668 128.282 24.4103 126.128L24.0441 125.379C22.983 122.002 22.517 118.467 22.6667 114.931C22.6667 114.287 22.6667 113.695 22.6667 113.19C22.7713 109.254 22.6667 100.042 19.3713 95.0619C19.0015 94.4997 18.5998 93.959 18.1682 93.4424C17.8488 93.1169 17.6698 92.6792 17.6698 92.2234C17.6698 91.7676 17.8488 91.33 18.1682 91.0045C23.2421 84.7877 23.5036 77.4217 23.2247 69.9164C23.2247 69.1676 23.2247 68.4188 23.2247 67.6526C23.2247 62.4284 23.3816 59.6248 24.7939 58.0053C25.3267 57.5191 25.9114 57.0928 26.5375 56.7341C29.3098 55.2191 32.7621 53.6693 34.837 52.7638L29.3621 43.8479C17.7323 45.0843 10.7406 54.836 11.9262 63.926C11.9527 64.3145 11.9527 64.7043 11.9262 65.0928C12.2365 67.7633 12.3937 70.4494 12.397 73.1379C12.2891 76.356 11.4268 79.504 9.87942 82.3288C8.332 85.1535 6.14261 87.5763 3.48722 89.4024C1.13338 91.1438 1.01133 93.0071 3.48722 94.7833C7.1872 97.3303 9.92043 101.048 11.2462 105.336C11.4965 108.907 11.4965 112.492 11.2462 116.063C10.0954 128.357 16.0759 138.474 26.0318 145.666C38.4113 154.687 51.0175 163.376 63.3621 172.431C66.5354 174.747 68.8021 174.556 71.8883 172.309C83.9365 163.498 96.159 154.896 108.329 146.276C113.639 142.669 117.951 137.781 120.866 132.066C123.237 126.18 123.743 117.804 123.847 113.886C123.847 113.172 123.847 112.476 123.847 111.797V111.692C123.836 108.363 124.631 105.08 126.164 102.124C127.697 99.1676 129.923 96.6253 132.652 94.7136C135.111 92.9722 134.989 91.109 132.652 89.3327" fill="#222D5D"/>
<path d="M117.449 10.1522C113.961 11.6498 110.84 13.0952 108.923 14.0007L99.3851 17.9536C98.9177 18.1464 98.5195 18.4756 98.2426 18.8982C97.9657 19.3208 97.8231 19.817 97.8333 20.3219C97.8333 20.3219 97.8333 20.4264 97.8333 20.6005C97.8225 20.6285 97.8225 20.6595 97.8333 20.6876C98.0668 22.74 97.7352 24.8172 96.8743 26.6953C95.4445 29.1507 94.3461 31.4841 88.4876 32.3722C83.6928 33.0862 79.8394 29.6034 78.2876 26.5212L78.183 26.2426C77.7336 24.8658 77.5156 23.4241 77.5379 21.9762C77.5533 21.2313 77.6468 20.4901 77.8169 19.7646C77.8169 19.5905 77.904 19.399 77.9563 19.2248C78.0087 19.0507 78.0784 18.8765 78.1307 18.7024C78.1549 18.6114 78.19 18.5237 78.2353 18.4412C78.2431 18.3951 78.2431 18.348 78.2353 18.3019C78.2353 18.1103 78.4097 17.9014 78.5143 17.7098C78.6189 17.5183 78.6712 17.379 78.7758 17.2048C78.8804 17.0307 78.9676 16.8565 79.0897 16.6824C79.3005 16.3424 79.5335 16.0166 79.7871 15.7072C80.1609 15.2416 80.5815 14.8157 81.0425 14.436C81.4309 14.9122 81.9337 15.2825 82.504 15.5124C83.0743 15.7423 83.6936 15.8242 84.3042 15.7507C84.9148 15.6771 85.4968 15.4504 85.996 15.0917C86.4952 14.733 86.8954 14.2539 87.1594 13.6991C87.4233 13.1443 87.5423 12.5319 87.5053 11.9187C87.4684 11.3056 87.2767 10.7118 86.948 10.1926C86.6194 9.67346 86.1646 9.24579 85.6259 8.94946C85.0872 8.65314 84.4821 8.4978 83.8671 8.49792C83.5115 8.50235 83.1588 8.56108 82.821 8.67206L82.1933 8.77654C80.935 9.03952 79.724 9.49162 78.6015 10.1174C77.5647 10.6934 76.5991 11.3889 75.7246 12.1896C75.2887 12.625 74.9051 13.0603 74.5215 13.5131L73.981 14.2271C73.824 14.4709 73.6497 14.6972 73.4928 14.9759C73.3358 15.2545 73.1964 15.446 73.0569 15.6724L72.6384 16.5083C72.5164 16.7695 72.3943 17.0481 72.2897 17.3093C72.1851 17.5705 72.0804 17.8665 71.9758 18.1452C71.8712 18.4238 71.7666 18.8069 71.6969 19.1377C71.1941 18.0009 70.7518 16.8384 70.3717 15.655C69.1338 11.0403 71.1563 9.80395 71.1563 9.80395C71.6467 9.36591 72.0386 8.82903 72.3061 8.22871C72.5735 7.62839 72.7106 6.97827 72.7081 6.3212C72.7081 5.10193 72.2232 3.9326 71.3599 3.07045C70.4967 2.2083 69.3259 1.72395 68.1051 1.72395C66.8842 1.72395 65.7134 2.2083 64.8502 3.07045C63.987 3.9326 63.502 5.10193 63.502 6.3212C63.4995 6.97827 63.6366 7.62839 63.9041 8.22871C64.1716 8.82903 64.5634 9.36591 65.0538 9.80395C65.0538 9.80395 67.0764 11.0403 65.8384 15.655C65.4589 16.8443 65.0166 18.0126 64.5133 19.1552C64.5133 18.8243 64.3389 18.4934 64.2343 18.1626C64.1297 17.8317 64.0425 17.6053 63.9205 17.3267C63.7984 17.0481 63.6938 16.7869 63.5717 16.5257L63.1533 15.6724C63.0138 15.446 62.9092 15.2545 62.7174 14.9759C62.563 14.717 62.3942 14.467 62.2117 14.2271C62.0374 13.9833 61.8804 13.7569 61.6886 13.5131C61.4969 13.2693 60.904 12.625 60.4681 12.1896C59.5881 11.3381 58.6039 10.6009 57.5389 9.99551C56.408 9.38623 55.1911 8.95175 53.9297 8.70688C53.7205 8.70688 53.5112 8.70688 53.302 8.6024C52.9642 8.49142 52.6114 8.4327 52.2558 8.42826C51.6348 8.422 51.0225 8.57358 50.4763 8.86875C49.9301 9.16393 49.468 9.59299 49.1336 10.1156C48.7992 10.6382 48.6033 11.2372 48.5645 11.8562C48.5256 12.4752 48.6451 13.094 48.9115 13.6542C49.178 14.2144 49.5828 14.6977 50.0878 15.0587C50.5928 15.4197 51.1815 15.6465 51.7984 15.7177C52.4153 15.7889 53.0402 15.7022 53.6144 15.4658C54.1885 15.2295 54.693 14.8511 55.0804 14.3664C55.5414 14.746 55.9621 15.172 56.3358 15.6376C56.5895 15.947 56.8225 16.2727 57.0333 16.6127C57.1553 16.7869 57.2425 16.961 57.3471 17.1352C57.4517 17.3093 57.5389 17.4138 57.5389 17.6053C57.5389 17.7969 57.7307 18.0058 57.8179 18.1974C57.8101 18.2435 57.8101 18.2906 57.8179 18.3367C57.8632 18.4192 57.8983 18.507 57.9225 18.5979L58.0969 19.1203C58.0969 19.2945 58.2015 19.486 58.2364 19.6602C58.4064 20.3856 58.4999 21.1268 58.5153 21.8717C58.5376 23.3197 58.3196 24.7613 57.8702 26.1381L57.7656 26.4167C56.3707 29.6034 52.4999 33.0862 47.7748 32.3722C41.9164 31.4841 40.8004 29.1507 39.3881 26.6953C38.5034 24.8238 38.1477 22.7464 38.3594 20.6876C38.3594 20.6876 38.3594 20.6876 38.3594 20.6005C38.3594 20.5134 38.3594 20.3219 38.3594 20.3219C38.3696 19.817 38.227 19.3208 37.9501 18.8982C37.6732 18.4756 37.275 18.1464 36.8076 17.9536L27.2876 13.931C25.3697 13.0255 22.2312 11.5802 18.7615 10.0826C18.4515 9.94845 18.1065 9.91779 17.7778 9.99515C17.449 10.0725 17.154 10.2538 16.9366 10.512C16.7192 10.7702 16.591 11.0915 16.5711 11.4283C16.5512 11.7651 16.6406 12.0992 16.8261 12.3812C19.7902 16.9436 22.6497 21.5873 25.4046 26.3122C29.7635 33.9221 33.3728 41.0443 37.1563 48.9502C37.4877 49.6524 38.0722 50.204 38.793 50.4945C39.5139 50.7851 40.3179 50.7932 41.0446 50.5174C49.7243 47.4165 58.8874 45.8834 68.1051 45.9898C77.2915 45.8208 86.4336 47.3013 95.0958 50.3607C95.8224 50.6365 96.6265 50.6283 97.3473 50.3378C98.0682 50.0472 98.6527 49.4957 98.984 48.7934C102.785 40.9398 106.447 33.9917 110.806 26.3819C113.56 21.7382 116.42 17.1236 119.384 12.5379C119.57 12.256 119.659 11.9218 119.639 11.585C119.619 11.2482 119.491 10.9269 119.274 10.6687C119.056 10.4105 118.761 10.2292 118.432 10.1519C118.104 10.0745 117.759 10.1052 117.449 10.2393M64.8969 38.5193C65.4897 39.1288 65.5594 39.8079 65.0712 40.2607C64.583 40.7134 63.9379 40.696 63.3276 40.0865L58.4804 35.2455C58.341 35.1062 58.2363 34.9495 58.0794 34.7579C59.9451 32.8946 61.7584 31.0488 63.6066 29.2552C63.6982 29.1514 63.8109 29.0683 63.9372 29.0114C64.0634 28.9544 64.2004 28.925 64.3389 28.925C64.4774 28.925 64.6144 28.9544 64.7406 29.0114C64.8669 29.0683 64.9796 29.1514 65.0712 29.2552C65.1704 29.3495 65.2493 29.463 65.3033 29.5887C65.3572 29.7144 65.3851 29.8498 65.3851 29.9865C65.3851 30.1233 65.3572 30.2587 65.3033 30.3844C65.2493 30.5101 65.1704 30.6236 65.0712 30.7179C64.8917 30.9379 64.6933 31.1418 64.4784 31.3274C63.3974 32.4245 62.2989 33.5215 61.1133 34.6883C62.4035 35.9943 63.624 37.1959 64.8271 38.3974M77.6599 35.1584L72.8999 40.0517C72.2722 40.6612 71.6271 40.7134 71.1563 40.2259C70.6856 39.7383 70.7379 39.0591 71.3307 38.4845C72.5338 37.2829 73.7543 36.0814 75.0446 34.7753C73.8589 33.6086 72.7604 32.5115 71.6794 31.4145C71.4645 31.2289 71.2661 31.0249 71.0866 30.805C70.9874 30.7107 70.9085 30.5972 70.8545 30.4715C70.8006 30.3457 70.7728 30.2104 70.7728 30.0736C70.7728 29.9368 70.8006 29.8015 70.8545 29.6758C70.9085 29.55 70.9874 29.4366 71.0866 29.3422C71.1782 29.2385 71.2909 29.1554 71.4172 29.0984C71.5434 29.0415 71.6804 29.0121 71.8189 29.0121C71.9574 29.0121 72.0944 29.0415 72.2206 29.0984C72.3469 29.1554 72.4596 29.2385 72.5512 29.3422C74.3994 31.0836 76.2128 32.9817 78.0784 34.845C77.9215 35.0365 77.7994 35.1933 77.6599 35.3326" fill="#222D5D"/>
</svg>
